Coordinates
version=1
nRows=12
nColumns=24
inDegrees=yes

Units are S.I. units (second, meters, Newtons, ...)
Angles are in degrees.

endheader
time	pelvis_tilt	pelvis_list	pelvis_rotation	pelvis_tx	pelvis_ty	pelvis_tz	hip_flexion_r	hip_adduction_r	hip_rotation_r	knee_angle_r	ankle_angle_r	subtalar_angle_r	mtp_angle_r	hip_flexion_l	hip_adduction_l	hip_rotation_l	knee_angle_l	ankle_angle_l	subtalar_angle_l	mtp_angle_l	lumbar_extension	lumbar_bending	lumbar_rotation
      5.26000000	      6.64610122	      0.98930378	      3.40826694	      1.20505966	      0.87342617	     -0.26813096	    -34.17563880	      3.42258177	     -6.46944387	     -9.60426582	     13.20317525	      8.44988390	      0.00000000	     20.40664394	      5.61204484	      6.87080299	    -11.85681424	      5.98927844	     -8.83407820	      0.00000000	    -32.56431179	     -4.44369839	      6.41032924
      5.27000000	      6.39620658	      1.61732514	      3.60570312	      1.22308582	      0.87197356	     -0.26945519	    -33.43228425	      2.62017111	     -7.81260825	    -12.13012097	     11.07015472	      8.96171091	      0.00000000	     21.61155077	      6.49235216	      5.73062895	    -15.22221681	      5.89350745	     -7.57032970	      0.00000000	    -32.21159433	     -5.31979591	      6.39628982
      5.28000000	      6.24421236	      2.25530201	      3.81848764	      1.24098580	      0.87104467	     -0.27069307	    -32.55692166	      1.78949634	     -8.90293797	    -14.94234326	      8.37591989	      8.96554701	      0.00000000	     22.62489811	      7.33752518	      4.85682629	    -18.52047290	      6.19831669	     -6.48716375	      0.00000000	    -32.03699907	     -6.19963863	      6.35099093
      5.29000000	      6.29706927	      2.92749962	      4.00941192	      1.25870109	      0.87076630	     -0.27179789	    -31.65636790	      0.90371953	     -9.73083489	    -18.03916401	      5.26455372	      8.50630296	      0.00000000	     23.27256592	      8.16117671	      4.09977467	    -21.65279004	      7.03440946	     -5.47056209	      0.00000000	    -32.16862937	     -7.10003923	      6.25317035
      5.30000000	      6.45650282	      3.54151002	      4.16851428	      1.27615307	      0.87100771	     -0.27283851	    -30.57997593	      0.02541055	    -10.30873328	    -21.46627836	      1.90770242	      7.76912992	      0.00000000	     23.58685794	      8.91490962	      3.57672038	    -24.48218488	      8.24614267	     -4.74948512	      0.00000000	    -32.45888281	     -7.89916635	      6.14475449
      5.31000000	      6.67015642	      4.07504825	      4.26368391	      1.29329916	      0.87169300	     -0.27384520	    -29.25780374	     -0.86103685	    -10.69280000	    -25.23047710	     -1.38587144	      6.99319178	      0.00000000	     23.56362534	      9.58164916	      3.23853384	    -26.89045733	      9.75351070	     -4.27406422	      0.00000000	    -32.81710543	     -8.56800971	      6.02022781
      5.32000000	      6.87372548	      4.51506765	      4.24983951	      1.31009228	      0.87275007	     -0.27480072	    -27.63086603	     -1.77251388	    -10.88131370	    -29.29075055	     -4.28802204	      6.31525316	      0.00000000	     23.24206896	     10.12729737	      2.98032536	    -28.79179791	     11.39681226	     -3.95400703	      0.00000000	    -33.13950791	     -9.10499394	      5.90997600
      5.33000000	      7.01573777	      4.83639765	      4.10868998	      1.32649436	      0.87412544	     -0.27568419	    -25.68032466	     -2.67526029	    -10.84599948	    -33.54300092	     -6.52579735	      5.81996594	      0.00000000	     22.68264489	     10.50298162	      2.71465357	    -30.15917587	     13.09405057	     -3.65542838	      0.00000000	    -33.34618079	     -9.49540998	      5.86730768
      5.34000000	      7.05614192	      5.09238448	      3.80842137	      1.34255439	      0.87581343	     -0.27642169	    -23.42594105	     -3.58444543	    -10.52303023	    -37.85119868	     -7.83620351	      5.56248059	      0.00000000	     21.91903313	     10.74819902	      2.39093558	    -30.95104257	     14.71603338	     -3.40530654	      0.00000000	    -33.37468940	     -9.82797185	      5.78650662
      5.35000000	      6.98666001	      5.24318335	      3.40142459	      1.35825851	      0.87779893	     -0.27705065	    -20.91865954	     -4.41807143	    -10.02680613	    -42.05940374	     -8.16789207	      5.54058434	      0.00000000	     21.02862122	     10.81903988	      1.96300187	    -31.26741333	     16.24440692	     -3.04909153	      0.00000000	    -33.21055524	    -10.03900732	      5.76788855
      5.36000000	      6.82970468	      5.33629860	      2.89752572	      1.37366712	      0.88015671	     -0.27752435	    -18.24894806	     -5.15774578	     -9.33788786	    -46.02092478	     -7.48959104	      5.75972466	      0.00000000	     19.99335496	     10.77496911	      1.45130577	    -31.11125269	     17.56575475	     -2.67590828	      0.00000000	    -32.88715335	    -10.18933115	      5.68921401
      5.37000000	      6.61620453	      5.36960237	      2.35634081	      1.38880351	      0.88290919	     -0.27788935	    -15.49948041	     -5.77270438	     -8.58384489	    -49.62804135	     -5.96538512	      6.19022307	      0.00000000	     18.82951276	     10.63747765	      0.88450884	    -30.57144475	     18.64868207	     -2.30285239	      0.00000000	    -32.45563405	    -10.25427116	      5.53484936
